<?xml version="1.0" encoding="iso-8859-1"?>
<!-- Generator: Adobe Illustrator 19.0.0, SVG Export Plug-In . SVG Version: 6.00 Build 0)  -->
<svg version="1.1" id="Layer_1" xmlns="http://www.w3.org/2000/svg" xmlns:xlink="http://www.w3.org/1999/xlink" x="0px" y="0px"
	 viewBox="0 0 511.904 511.904" style="enable-background:new 0 0 511.904 511.904;" xml:space="preserve">
<g transform="translate(-1)">
	<g>
		<path d="M449.975,291.041c-4.019,2.458-5.282,7.714-2.833,11.733c49.408,80.862,62.404,148.787,33.92,177.272
			c-33.679,33.679-118.611,8.444-209.39-55.226c27.366-20.76,55.059-44.877,82.171-71.989
			c132.42-132.42,193.604-278.707,139.281-333.03C457.95-15.357,383.104-3.18,292.924,52.432c-4.019,2.466-5.265,7.723-2.79,11.742
			c2.475,4.011,7.74,5.257,11.742,2.782c81.758-50.406,150.4-63.855,179.183-35.081c45.969,45.969-17.818,187.418-139.281,308.89
			c-27.687,27.687-56.41,52.363-84.805,73.438c-28.396-21.076-57.12-45.752-84.808-73.438
			C50.701,219.293-13.086,77.844,32.883,31.875c45.961-45.969,187.418,17.809,308.89,139.281
			c9.362,9.362,33.064,33.489,49.322,50.669h-31.723c-4.71,0-8.533,3.823-8.533,8.533s3.823,8.533,8.533,8.533h51.2
			c0.036,0,0.071-0.005,0.107-0.005c0.169-0.002,0.338-0.013,0.507-0.026c0.115-0.008,0.232-0.014,0.346-0.026
			c0.156-0.018,0.311-0.045,0.466-0.071c0.123-0.021,0.247-0.038,0.368-0.064c0.143-0.031,0.283-0.071,0.424-0.109
			c0.128-0.035,0.258-0.066,0.384-0.106c0.134-0.043,0.265-0.096,0.397-0.145c0.128-0.048,0.257-0.093,0.382-0.147
			c0.126-0.055,0.249-0.119,0.374-0.18c0.126-0.062,0.253-0.121,0.375-0.189c0.117-0.065,0.23-0.138,0.344-0.209
			c0.124-0.077,0.25-0.152,0.37-0.235c0.107-0.074,0.21-0.156,0.314-0.235c0.12-0.092,0.241-0.183,0.356-0.28
			c0.032-0.027,0.066-0.049,0.098-0.077c0.07-0.062,0.131-0.13,0.199-0.193c0.109-0.102,0.217-0.204,0.321-0.311
			c0.095-0.098,0.185-0.2,0.274-0.301c0.095-0.108,0.188-0.216,0.277-0.329c0.084-0.107,0.164-0.215,0.243-0.325
			c0.085-0.118,0.168-0.238,0.247-0.361c0.068-0.106,0.133-0.214,0.196-0.322c0.08-0.137,0.156-0.275,0.228-0.416
			c0.05-0.098,0.097-0.197,0.143-0.296c0.073-0.158,0.142-0.319,0.206-0.482c0.034-0.087,0.065-0.174,0.096-0.261
			c0.063-0.178,0.12-0.358,0.171-0.541c0.022-0.079,0.042-0.158,0.061-0.238c0.047-0.188,0.088-0.378,0.122-0.572
			c0.014-0.082,0.026-0.165,0.038-0.247c0.027-0.188,0.051-0.377,0.065-0.568c0.007-0.095,0.01-0.189,0.014-0.284
			c0.006-0.126,0.019-0.251,0.019-0.378v-51.2c0-4.71-3.823-8.533-8.533-8.533s-8.533,3.823-8.533,8.533v29.414
			c-16.396-17.273-39.071-40.354-48.199-49.482C221.427,26.67,75.14-34.514,20.817,19.801
			c-54.323,54.323,6.861,200.61,139.281,333.03c27.113,27.113,54.805,51.232,82.171,71.991
			c-90.775,63.665-175.705,88.896-209.39,55.224c-27.604-27.604-16.436-92.164,27.826-168.44v21.153c0,4.71,3.823,8.533,8.533,8.533
			s8.533-3.823,8.533-8.533v-51.2c0-0.023-0.003-0.044-0.003-0.067c-0.001-0.124-0.012-0.247-0.019-0.37
			c-0.008-0.165-0.013-0.33-0.031-0.492c-0.001-0.01-0.003-0.021-0.005-0.031c-0.124-1.103-0.455-2.142-0.959-3.077
			c-0.002-0.004-0.003-0.008-0.005-0.011c-0.064-0.119-0.139-0.232-0.209-0.347c-0.596-0.994-1.401-1.878-2.404-2.583
			c-0.049-0.035-0.095-0.073-0.145-0.106c-0.026-0.018-0.049-0.038-0.075-0.055c-0.14-0.092-0.286-0.169-0.429-0.251
			c-0.074-0.043-0.145-0.089-0.221-0.129c-0.177-0.095-0.357-0.178-0.538-0.259c-0.072-0.032-0.143-0.068-0.216-0.099
			c-0.195-0.081-0.392-0.15-0.59-0.216c-0.065-0.021-0.128-0.046-0.193-0.066c-0.215-0.066-0.431-0.119-0.648-0.167
			c-0.054-0.012-0.107-0.027-0.161-0.038c-0.237-0.047-0.475-0.082-0.714-0.109c-0.041-0.005-0.08-0.012-0.121-0.016
			c-0.263-0.026-0.526-0.039-0.789-0.04c-0.019,0-0.038-0.003-0.058-0.003h-0.029c-0.043,0-0.085-0.001-0.128,0H18.038
			c-4.71,0-8.533,3.823-8.533,8.533s3.823,8.533,8.533,8.533h35.656c-55.558,89.956-68.305,166.604-32.881,202.02
			c13.414,13.406,32.418,19.78,55.441,19.78c47.722,0,112.688-27.388,180.715-76.218c68.029,48.836,132.995,76.224,180.719,76.218
			c23.014,0,42.035-6.374,55.441-19.78c34.867-34.867,23.125-108.971-31.42-198.238
			C459.251,289.855,454.012,288.592,449.975,291.041z"/>
	</g>
</g>
<g>
</g>
<g>
</g>
<g>
</g>
<g>
</g>
<g>
</g>
<g>
</g>
<g>
</g>
<g>
</g>
<g>
</g>
<g>
</g>
<g>
</g>
<g>
</g>
<g>
</g>
<g>
</g>
<g>
</g>
</svg>
